PathFileType	3	(X/Y/Z)	D:\Jess\PFP\Labelled\PA09\20250730\SRRun01.trc
DataRate	CameraRate	NumFrames	NumMarkers	Units	OrigDataRate	OrigDataStartFrame	OrigNumFrames
250.0	250.0	4	37	mm	250.0	37188	2501
Frame#	Time	C7			T10			CLAV			LSHO			RSHO			LASIS			RASIS			LPSIS			RPSIS			LILCR			RILCR			LGTR			LTHI			LLTHI			LLEP			LMEP			LPSH			LLSH			LDSH			LLMAL			LMMAL			LTOE			L5TH			LHEE			RGTR			RTHI			RLTHI			RLEP			RMEP			RPSH			RLSH			RDSH			RLMAL			RMMAL			RTOE			R5TH			RHEE			
		X1	Y1	Z1	X2	Y2	Z2	X3	Y3	Z3	X4	Y4	Z4	X5	Y5	Z5	X6	Y6	Z6	X7	Y7	Z7	X8	Y8	Z8	X9	Y9	Z9	X10	Y10	Z10	X11	Y11	Z11	X12	Y12	Z12	X13	Y13	Z13	X14	Y14	Z14	X15	Y15	Z15	X16	Y16	Z16	X17	Y17	Z17	X18	Y18	Z18	X19	Y19	Z19	X20	Y20	Z20	X21	Y21	Z21	X22	Y22	Z22	X23	Y23	Z23	X24	Y24	Z24	X25	Y25	Z25	X26	Y26	Z26	X27	Y27	Z27	X28	Y28	Z28	X29	Y29	Z29	X30	Y30	Z30	X31	Y31	Z31	X32	Y32	Z32	X33	Y33	Z33	X34	Y34	Z34	X35	Y35	Z35	X36	Y36	Z36	X37	Y37	Z37	

2189	148.748	1185.653489428077	1373.317760654995	-331.5401609858314	1072.333464684212	1147.059946360335	-303.9155103219409	1293.489949284587	1250.460600577193	-352.8137946881862	1195.684111002167	1357.348773673592	-485.1950423638037	1267.090467127468	1340.878504756171	-180.8010291534469	1158.977506637825	937.5385973062427	-430.1543062024599	1168.911057060106	912.8200593104286	-207.1517387282047	1022.367514954081	985.4404768095332	-320.750161813895	1026.83624752458	982.0753980406146	-289.0417643822288	1110.892708461134	996.5561723852198	-463.5133835874536	1149.687443569042	982.3147855497916	-190.4943590503688	1137.140205789963	844.0768908308662	-481.6169542666469	1259.575702979798	714.209453047795	-436.7555430843576	1205.998739803361	601.9350179375945	-460.5362664716609	1242.862433853367	479.2015160089693	-438.4047636980226	nan	nan	nan	1312.171620572366	397.9292630287751	-390.8739068451951	1233.370324737126	297.5413488239381	-425.0812605988693	1293.769420362091	205.8124562217978	-364.2989510899939	1242.865681147467	98.85256948621719	-377.6235603147841	nan	nan	nan	1391.372424349259	83.99659537049463	-372.2014715820516	1368.836604473289	55.34314184402345	-409.7316716444448	1173.520654651693	69.74619063012071	-323.6344836205852	1081.314767477568	808.2245043673582	-161.7221899426453	1117.926317925277	623.1318261071541	-261.2192994217784	1022.075284489471	577.9296904182604	-200.7930955262947	943.7906482669364	473.9033516428145	-222.5185942638812	nan	nan	nan	884.4841593932482	396.5256454359804	-275.756067880987	759.0068369103394	432.1784758634427	-205.6701889008422	686.312408563015	357.9618461973522	-254.4258917674579	559.5036289645964	375.1881960543056	-213.7677051906502	nan	nan	nan	549.376986379547	219.2526827941745	-234.5088738606021	515.5666157424673	235.513547636957	-194.5266523030031	525.2867452141576	446.9394861289744	-250.5568550860631	
2190	148.752	1184.061178123169	1370.227273543247	-334.0185892872254	1071.959323880917	1143.663753173539	-304.2615089798865	1293.165924170919	1246.585682358581	-352.5254607645704	1196.106640399371	1353.211859332003	-486.2870251253036	1265.913701189505	1337.420808103696	-180.3935259742787	1158.879231397513	934.3638460344999	-430.678343434578	1169.238396834823	909.4389671084815	-207.157861495716	1022.147861098768	981.3889761240857	-320.3165222255652	1026.569911723498	977.9473875329528	-288.5776304081214	1110.499254253798	992.5505515985117	-463.7344099138439	1149.795232005416	978.5085104608617	-189.8171120277235	1137.427914928284	840.7451699921769	-481.5736221316863	1261.111181089302	711.9698874066918	-437.3655847447664	1207.16258177757	599.3837221122254	-459.5763133942903	1244.208717366417	476.9034451441947	-437.6690834485892	nan	nan	nan	1311.5670582922	394.67629122045	-389.006127693328	1230.880262512963	296.027294457141	-424.123069603229	1288.000547705755	203.177655924356	-362.4263012264452	1233.337508683593	98.28732013241701	-376.3281916670491	nan	nan	nan	1381.514122215678	80.69005941508443	-371.4531948958011	1358.248240575794	53.4640804214642	-409.6661499810238	1163.106178236778	70.19308159996756	-322.8475946314971	1082.346924398124	804.0817837128769	-161.7368750259479	1120.453541042112	619.5816947476392	-259.4567115521178	1024.549916688979	573.4402080769571	-200.0420518032698	947.9185324305873	469.5343437786773	-221.5387375592261	nan	nan	nan	888.0395653315804	392.7666732476213	-274.2858171603994	763.0903068343749	431.6416929887653	-204.7569750371756	689.1071966402261	358.5462872708877	-252.8634305345383	562.7711051438281	379.0398732152228	-212.6268248977576	nan	nan	nan	549.8353242555607	223.1925884845637	-231.07448013699	516.2580564298868	240.6017138766583	-191.4111440607126	530.0496526515115	450.9371830451122	-250.5166023644071	
2191	148.756	1182.432718894788	1367.217184836622	-336.5975196228239	1071.566945745171	1140.365869236284	-304.6697094341906	1292.848808365917	1242.749587548917	-352.1728759044728	1196.598250901884	1349.105043132505	-487.4018621842146	1264.631891611426	1333.97689887459	-179.9075614767916	1158.750021008903	931.2367046908239	-431.1837210717319	1169.483389765035	906.1249754584035	-207.1913922574932	1021.886095167519	977.4652099420005	-319.8989322081164	1026.243445357253	973.9310585411722	-288.1292644092334	1110.084619380296	988.5697818505192	-463.9819383192619	1149.850756051028	974.718229917996	-189.1411064203413	1137.657498917173	837.5139866756705	-481.5556459008578	1262.421547246318	709.6775044983624	-437.8714439240536	1208.147786629257	596.8786974897888	-458.7287931723987	1245.366427327541	474.6626757423875	-436.9930123127273	nan	nan	nan	1310.641028072882	391.4667640249252	-387.1451973938694	1228.058466340043	294.6285570609909	-423.2746414088555	1281.753613219647	200.6944166103243	-360.6260767509524	1223.324640153504	97.90041513969865	-375.1620735111685	nan	nan	nan	1371.133929046842	77.7738590235753	-370.7338219666918	1347.247747999505	51.90894804212881	-409.6011509707135	1152.247587194954	70.64694404921487	-322.2128013475397	1083.347345735008	800.0197293971883	-161.7717617918007	1123.070072410517	616.1301922894578	-257.5206272090243	1027.092750067464	569.0430393929494	-199.193157525012	952.2173216520265	465.2074836322795	-220.4363479695338	nan	nan	nan	891.9406485700134	388.9808565796125	-272.6977574546779	767.4829095322351	430.9564683020269	-203.8144264709689	692.364193183821	358.9313859275086	-251.3107272127857	566.5281748625284	382.6067300071899	-211.6160315486868	nan	nan	nan	551.013342726785	226.8924945733525	-227.5417500184047	517.672914925977	245.4551349019634	-188.2356141487424	535.2047937541416	454.5005419981686	-250.7293190727455	
2192	148.76	1180.818161852354	1364.304734158099	-339.200350268009	1071.157440971812	1137.195020009423	-305.1374748404448	1292.541493387127	1238.983381826197	-351.75477967175	1197.161896876795	1345.059075006458	-488.5276739755645	1263.252603617089	1330.573861621162	-179.3518574342025	1158.595437173628	928.1804545469292	-431.6561272603041	1169.637731415477	902.9081290077114	-207.2440564263749	1021.58306828476	973.704858501325	-319.5008152578077	1025.85757261941	970.0625822134509	-287.7007091154621	1109.644153389749	984.6500887735987	-464.2540446495601	1149.834548147624	970.9818235882251	-188.4665089282178	1137.820021562099	834.4057679336856	-481.5591976601051	1263.472287193816	707.3354529882104	-438.2579297579773	1208.918873333929	594.4224649438413	-458.0023255730625	1246.271669964244	472.470601756147	-436.3783039480336	nan	nan	nan	1309.362191879327	388.3100424875166	-385.3280764217286	1224.890788094695	293.3311395434077	-422.5347021906326	1275.06570846174	198.3712128461181	-358.9210246588214	1212.915167320816	97.67766447666797	-374.1274270600733	nan	nan	nan	1360.324362724506	75.26346937854861	-370.0464606351783	1335.927323237182	50.67243149462521	-409.5256140837062	1141.04436488026	71.10368824445941	-321.7115245707697	1084.311065141265	796.0704490481818	-161.8236110920852	1125.778712722477	612.8131748081597	-255.46486588608	1029.732760424379	564.7676131334913	-198.2615200313073	956.7056345410482	460.944769207482	-219.2300783230346	nan	nan	nan	896.1990105379492	385.1932588540361	-271.0157067062476	772.1909270099177	430.1294461012136	-202.849903822921	696.0843024898871	359.1191273623387	-249.7795058509006	570.7698954547641	385.8739463681985	-210.734719576242	nan	nan	nan	552.9221073020651	230.3316061159886	-223.9359372610563	519.8281619028152	250.0456397166236	-185.0156577925109	540.7250085153523	457.6192175791366	-251.1721903208728	
